<svg xmlns="http://www.w3.org/2000/svg" viewBox="0 0 18 18" focusable="false" aria-hidden="true" class="a8x1wuo _1fragemkh _1fragemmj _1fragemhs _1fragemhn">

<style>
.discountStyle { fill:transparent; stroke:#0A0B09;stroke-width:1; }

</style>
<path class="discountStyle" stroke-linecap="round" stroke-linejoin="round" d="m10.802 15.686 5.367-5.368a.15.15 0 0 0 .046-.109V4.144m-2.998-.95h-5.67a.16.16 0 0 0-.11.046L1.779 8.897a.154.154 0 0 0 0 .219l5.594 5.593c.06.06.158.06.218 0l5.658-5.657a.15.15 0 0 0 .045-.11v-5.67a.077.077 0 0 0-.077-.077Zm-3.06 3.749a.643.643 0 1 1-1.286 0 .643.643 0 0 1 1.286 0m-.648-.005h.01v.01h-.01z">
</path></svg>