<svg xmlns="http://www.w3.org/2000/svg" viewBox="0 0 48 28" width="48" height="28"><path d="M44.211 0H3.789C1.642 0 0 1.517 0 3.5v21C0 26.483 1.768 28 3.789 28h40.421C46.358 28 48 26.483 48 24.5v-21C48 1.517 46.232 0 44.211 0z" opacity=".08"/><path fill="#fff" d="M44.444 1C45.85 1 47 2.063 47 3.363v21.273c0 1.3-1.15 2.364-2.556 2.364H3.555C2.15 27 1 25.936 1 24.636V3.363C1 2.063 2.15 1 3.555 1h40.889"/><path d="M35.883 11.754H35.5c-.511 1.182-.894 1.773-1.278 3.545h2.428c-.383-1.773-.383-2.6-.767-3.545zm3.706 6.973h-2.172c-.128 0-.128 0-.256-.118l-.256-1.064-.128-.236h-3.067c-.128 0-.256 0-.256.236l-.383 1.064c0 .118-.128.118-.128.118h-2.683l.256-.591 3.706-8.036c0-.591.383-.827 1.022-.827h1.917c.128 0 .256 0 .256.236l1.789 7.682c.128.473.256.827.256 1.3.128.118.128.118.128.236zm-17.122-.355l.511-2.127c.128 0 .256.118.256.118.894.355 1.789.591 2.683.473.256 0 .639-.118.894-.236.639-.236.639-.827.128-1.3-.256-.236-.639-.355-1.022-.591-.511-.236-1.022-.473-1.406-.827-1.533-1.182-1.022-2.836-.128-3.664.767-.473 1.15-.945 2.172-.945 1.533 0 3.194 0 3.961.236h.128c-.128.709-.256 1.3-.511 2.009-.639-.236-1.278-.473-1.917-.473-.383 0-.767 0-1.15.118-.256 0-.383.118-.511.236a.54.54 0 0 0 0 .827l.639.473 1.406.709c.639.355 1.278.945 1.406 1.655.256 1.064-.128 2.009-1.15 2.718-.639.473-.894.709-1.789.709-1.789 0-3.194.118-4.344-.236-.128.236-.128.236-.256.118zm-4.472.355c.128-.827.128-.827.256-1.182l1.789-7.918c.128-.236.128-.355.383-.355h2.3c-.256 1.418-.511 2.482-.894 3.782l-1.278 5.318c0 .236-.128.236-.383.236m-14.056-9.1c0-.118.256-.236.383-.236h4.344c.639 0 1.15.355 1.278.945l1.15 5.2c0 .118 0 .118.128.236 0-.118.128-.118.128-.118l2.683-6.027c-.128-.118 0-.236.128-.236h2.683c0 .118 0 .118-.128.236l-3.961 8.627c-.128.236-.128.355-.256.473s-.383 0-.639 0h-1.917c-.128 0-.256 0-.256-.236l-2.044-7.327c-.256-.236-.639-.591-1.15-.709-.767-.355-2.172-.591-2.428-.591z" fill="#142688"/></svg>