<svg xmlns="http://www.w3.org/2000/svg" viewBox="0 0 48 28" width="48" height="28"><path d="M44.211 0H3.789C1.642 0 0 1.517 0 3.5v21C0 26.483 1.768 28 3.789 28h40.421C46.358 28 48 26.483 48 24.5v-21C48 1.517 46.232 0 44.211 0z" opacity=".08"/><path fill="#fff" d="M44.445 1C45.85 1 47 2.063 47 3.363v21.273c0 1.3-1.15 2.364-2.556 2.364H3.556C2.15 27 1 25.936 1 24.636V3.363C1 2.063 2.15 1 3.556 1h40.889"/><ellipse fill="#eb001b" cx="18.889" cy="14" rx="8.944" ry="8.273"/><ellipse fill="#f79e1b" cx="29.112" cy="14" rx="8.944" ry="8.273"/><path fill="#ff5f00" d="M27.834 14c0-2.836-1.533-5.318-3.833-6.736C21.7 8.8 20.167 11.281 20.167 14S21.7 19.318 24 20.736c2.3-1.418 3.833-3.9 3.833-6.736z"/></svg>