<svg xmlns="http://www.w3.org/2000/svg" xmlns:xlink="http://www.w3.org/1999/xlink" viewBox="0 0 48 28" width="48" height="28"><use xlink:href="#B" opacity=".08"/><use xlink:href="#B" opacity=".08"/><g transform="matrix(.958333 0 0 .928571 1 1)"><path d="M35 0H3C1.3 0 0 1.3 0 3v18a3.01 3.01 0 0 0 3 3h32c1.7 0 3-1.3 3-3V3a3.01 3.01 0 0 0-3-3z" opacity=".08" transform="scale(1.2631579 1.1666667)"/><path fill="#005b9a" d="M0 25.433v.817zM22.358 0v28h-9.095c-1.642 0-2.653-1.167-2.274-2.683l5.558-22.633C16.926 1.167 18.947 0 20.589 0zm15.916 0c-1.642 0-3.663 1.167-4.042 2.683l-5.684 22.633c-.379 1.517.632 2.683 2.274 2.683h-6.189V0z"/><path fill="#e9292d" d="M20.589 0c-1.642 0-3.663 1.283-4.042 2.683l-5.558 22.633c-.379 1.517.632 2.683 2.274 2.683H2.021c-1.011 0-1.895-.7-1.895-1.633v-24.5C.126.933 1.011 0 2.021 0z"/><path fill="#0e73b9" d="M38.274 0c-1.642 0-3.663 1.283-4.042 2.683l-5.558 22.633c-.379 1.517.632 2.683 2.274 2.683H12.632h.632c-1.642 0-2.653-1.167-2.274-2.683l5.558-22.633C16.926 1.167 18.947 0 20.589 0z"/><path fill="#059da4" d="M48 1.867v24.5C48 27.3 47.242 28 46.105 28H30.821c-1.642 0-2.653-1.283-2.274-2.683l5.684-22.633C34.611 1.167 36.632 0 38.274 0h7.832A1.81 1.81 0 0 1 48 1.867z"/><path fill="#fff" d="M18.793 15.919h.177c.177 0 .354-.082.354-.163l.531-.735h1.503l-.265.408h1.768l-.265.735h-2.122c-.265.327-.531.49-.884.49h-1.061l.265-.735m-.265 1.062h3.802l-.265.817h-1.503l-.265.817H21.8l-.265.817h-1.503l-.354 1.225c-.088.163 0 .327.354.245h1.238l-.265.817h-2.387c-.442 0-.619-.245-.442-.735l.442-1.552h-.973l.265-.817h.973l.265-.817h-.884zm6.101-2.042v.49s.707-.49 1.415-.49h2.476l-.973 3.103c-.088.327-.442.572-.973.572h-2.829l-.619 2.205c0 .082 0 .163.177.163h.531l-.177.653h-1.415c-.531 0-.707-.163-.619-.408l1.857-6.288zm2.122.898h-2.211l-.265.817s.354-.245.973-.245h1.326zm-.796 1.96c.177 0 .265 0 .265-.163l.177-.408h-2.211l-.177.653zm-1.503.98h1.238v.49h.354c.177 0 .265-.082.265-.163l.088-.327h1.061l-.177.572c-.088.408-.442.572-.973.653h-.707v.898c0 .163.088.245.442.245h.619l-.177.653h-1.503c-.442 0-.619-.163-.619-.572zm5.305-2.858l.265-.98h1.503l-.088.327s.707-.327 1.326-.327h1.857l-.265.98h-.265l-1.415 4.492h.265l-.265.898h-.265l-.088.408h-1.503l.088-.408h-2.741l.265-.898h.265l1.415-4.492h-.354m1.592 0l-.354 1.225s.619-.245 1.149-.327c.088-.408.265-.898.265-.898zm-.619 1.797l-.354 1.307s.707-.327 1.238-.327c.177-.49.265-.898.265-.898zm.265 2.695l.265-.898H30.2l-.265.898zm3.625-5.472h1.415l.088.49c0 .082.088.163.265.163h.265l-.265.817h-.973c-.354 0-.619-.082-.619-.408zm-.442 1.715h4.509l-.265.898H36.92l-.265.817h1.415l-.265.898h-1.592l-.354.49h.796l.177.98c0 .082.088.163.265.163h.265l-.265.817h-.884c-.442 0-.707-.082-.707-.408l-.177-.898-.707.98c-.177.245-.442.408-.796.408h-1.326l.265-.817h.442c.177 0 .265-.082.442-.245l1.061-1.47h-1.326l.265-.898h1.503l.265-.817h-1.503zm-24.935-5.88c-.177.817-.531 1.388-1.149 1.797s-1.415.653-2.387.653c-.884 0-1.592-.245-1.945-.653-.265-.327-.442-.653-.442-1.143 0-.163 0-.408.088-.653l1.061-4.573h1.503L5 10.774v.327c0 .245.088.408.177.572.177.245.442.327.884.327s.884-.082 1.149-.327.531-.49.619-.898l.973-4.573h1.503l-1.061 4.573m1.415-1.797h1.061l-.088.572.177-.163c.354-.327.796-.49 1.326-.49.442 0 .796.163.973.408s.265.572.177 1.062l-.619 2.777h-1.149l.531-2.532c.088-.327.088-.572 0-.653-.088-.163-.265-.163-.442-.163-.265 0-.531.082-.707.245s-.354.408-.354.735l-.531 2.368H9.863l.796-4.165m12.379 0h1.061l-.088.572.177-.163c.354-.327.796-.49 1.326-.49.442 0 .796.163.973.408s.265.572.177 1.062l-.619 2.777h-1.149l.531-2.613c.088-.245 0-.49-.088-.572-.088-.163-.265-.163-.442-.163-.265 0-.531.082-.707.245s-.354.408-.354.735l-.531 2.368h-1.149l.884-4.165m-7.339 0h1.238l-.973 4.083h-1.238l.973-4.083m.442-1.552h1.238l-.265.98h-1.238zm1.768 5.308c-.265-.245-.442-.653-.442-1.143v-.245c0-.082 0-.245.088-.327.177-.653.442-1.225.884-1.552.442-.408 1.061-.572 1.68-.572a2.29 2.29 0 0 1 1.326.408c.265.245.442.653.442 1.143v.245c0 .082 0 .245-.088.327-.177.653-.442 1.143-.884 1.552s-1.061.572-1.68.572c-.442 0-.884-.163-1.326-.408m2.387-.817a2.62 2.62 0 0 0 .442-.98v-.408c0-.245-.088-.408-.177-.572-.157-.162-.384-.251-.619-.245-.354 0-.619.082-.796.327a2.62 2.62 0 0 0-.442.98v.327c0 .245.088.408.177.572.177.163.354.245.619.245.354.082.531 0 .796-.245m8.223-5.472h3.183c.619 0 1.061.163 1.415.408s.442.653.442 1.062v.327c0 .082 0 .245-.088.327-.088.572-.442 1.143-.884 1.47-.531.408-1.061.572-1.768.572H29.05l-.531 2.368h-1.503l1.503-6.533m.707 3.022h1.415a1.58 1.58 0 0 0 .884-.245c.177-.163.354-.408.442-.735v-.327c0-.245-.088-.408-.265-.49s-.442-.163-.884-.163h-1.149zm10.964 4.328c-.442.898-.884 1.47-1.149 1.715s-.796.817-2.034.817l.088-.735c1.061-.327 1.592-1.633 1.945-2.287l-.354-4.41h1.503l.088 2.777 1.149-2.695h1.326l-2.564 4.818m-3.714-4.492l-.531.327c-.531-.408-1.061-.653-1.945-.245-1.238.572-2.387 4.818 1.149 3.43l.177.245h1.415l.884-3.838-1.149.082m-.707 2.123c-.265.653-.707.98-1.149.898-.354-.163-.442-.735-.265-1.388.265-.653.707-.98 1.149-.898.354.163.442.735.265 1.388"/></g><defs ><path id="B" d="M44.211 0H3.789C1.642 0 0 1.517 0 3.5v21C0 26.483 1.768 28 3.789 28h40.421C46.358 28 48 26.483 48 24.5v-21C48 1.517 46.232 0 44.211 0z"/></defs></svg>