<svg xmlns="http://www.w3.org/2000/svg" xmlns:xlink="http://www.w3.org/1999/xlink" viewBox="0 0 48 28" width="48" height="28"><path d="M44.211 0H3.789C1.642 0 0 1.517 0 3.5v21C0 26.483 1.768 28 3.789 28h40.421C46.358 28 48 26.483 48 24.5v-21C48 1.517 46.232 0 44.211 0z" opacity=".08"/><g fill-rule="evenodd"><path d="M44.444 1C45.85 1 47 2.064 47 3.364v21.273c0 1.3-1.15 2.364-2.556 2.364H3.556C2.15 27 1 25.936 1 24.636V3.364C1 2.064 2.15 1 3.556 1h40.889" fill="#fff" fill-rule="nonzero"/><use xlink:href="#B" fill="#006ebc"/><path d="M23.361 5.727h4.472v13.591c0 1.632-1.43 2.955-3.194 2.955h-4.472V8.682c0-1.632 1.43-2.955 3.194-2.955z" fill="#f00036"/><use xlink:href="#B" x="17.889" fill="#2ab419"/><path d="M13.465 16.955c-1.354 0-2.711-.359-3.394-1.166l.997-.799c.087 1.339 4.53 1.465 4.53-.225v-3.719H17.9v3.719c0 .86-.733 1.562-2.01 1.929-.595.17-1.744.261-2.425.261zm10.37 0c-.861 0-1.774-.126-2.511-.433-1.211-.502-1.676-1.425-1.661-2.599.015-1.198.557-2.106 1.876-2.559 1.685-.579 4.272-.308 5.017.319v1.149c-.731-.616-2.502-1.061-3.73-.544-.631.267-.942 1.084-.951 1.711-.008.662.313 1.48.951 1.769 1.218.552 3.054.047 3.73-.521v1.194c-.457.301-1.601.513-2.72.513zm11.09-3.057c.473-.278.744-.67.744-1.188s-.148-.812-.445-1.11c-.263-.245-.741-.554-1.582-.554h-4.531v5.909h4.531c.889 0 1.402-.272 1.68-.49.362-.295.544-.626.544-1.135s-.198-1.073-.942-1.432zm-2.435-.332h-1.825v-1.707h1.91c1.222 0 1.206 1.707-.086 1.707zm.368 2.549h-2.193v-1.788h2.193c1.26 0 1.384 1.788 0 1.788z" fill="#fff" fill-rule="nonzero"/></g><defs ><path id="B" d="M14.417 5.727h4.472v13.591c0 .784-.337 1.535-.936 2.089s-1.412.865-2.259.865h-4.472V8.682c0-.784.337-1.535.936-2.089s1.412-.865 2.259-.865z"/></defs></svg>