<svg xmlns="http://www.w3.org/2000/svg" viewBox="0 0 48 28" width="48" height="28"><g transform="scale(.28999341 .26424069)"><path d="M150.698 0H14.823l-1.698.003-1.43.022c-1.039.028-2.087.09-3.113.274a10.51 10.51 0 0 0-2.958.975 9.932 9.932 0 0 0-4.35 4.35 10.463 10.463 0 0 0-.975 2.96C.113 9.611.052 10.658.024 11.696a70.22 70.22 0 0 0-.022 1.43L0 14.823v76.318l.002 1.699.022 1.43c.028 1.036.09 2.084.275 3.11a10.46 10.46 0 0 0 .974 2.96 9.897 9.897 0 0 0 1.83 2.52 9.874 9.874 0 0 0 2.52 1.83c.947.483 1.917.79 2.96.977 1.025.183 2.073.245 3.112.273l1.43.02 1.698.004h135.875l1.697-.004 1.431-.02c1.037-.028 2.085-.09 3.113-.273a10.478 10.478 0 0 0 2.958-.977 9.955 9.955 0 0 0 4.35-4.35c.483-.947.789-1.917.974-2.96.186-1.026.246-2.074.274-3.11l.022-1.43.004-1.699V14.824l-.004-1.699a63.067 63.067 0 0 0-.022-1.429c-.028-1.038-.088-2.085-.274-3.112a10.4 10.4 0 0 0-.974-2.96 9.94 9.94 0 0 0-4.35-4.35A10.52 10.52 0 0 0 156.939.3c-1.028-.185-2.076-.246-3.113-.274a71.417 71.417 0 0 0-1.431-.022L150.698 0z"/><path fill="#fff" d="M150.77 3.784l1.674.003 1.361.02c.794.022 1.721.065 2.586.219.751.134 1.381.338 1.986.645a6.399 6.359 0 0 1 2.807 2.793 6.83 6.83 0 0 1 .646 1.973c.154.85.197 1.774.218 2.567l.02 1.353.005 1.662v75.928l-.004 1.673-.02 1.343c-.022.792-.065 1.716-.221 2.576a6.862 6.82 0 0 1-.646 1.965 6.404 6.364 0 0 1-2.811 2.793c-.601.304-1.229.508-1.973.642-.882.156-1.849.199-2.577.219l-1.38.019-1.671.004H14.729c-.551 0-1.101 0-1.662-.004a75.072 74.609 0 0 1-1.351-.018c-.745-.02-1.712-.064-2.587-.219a6.945 6.903 0 0 1-1.988-.647 6.344 6.305 0 0 1-1.624-1.174 6.362 6.322 0 0 1-1.179-1.615 6.942 6.9 0 0 1-.647-1.975c-.156-.859-.2-1.779-.22-2.565a66.158 65.75 0 0 1-.02-1.348l-.003-1.32V14.67l.002-1.318a66.77 66.359 0 0 1 .02-1.35c.022-.788.065-1.708.222-2.574a6.931 6.889 0 0 1 .647-1.971 6.33 6.33 0 0 1 1.181-1.615 6.393 6.353 0 0 1 1.626-1.174 6.967 6.924 0 0 1 1.982-.643c.866-.154 1.794-.197 2.589-.219l1.355-.02 1.679-.003H150.77"/><path d="M43.508 35.77c1.404-1.755 2.356-4.112 2.105-6.52-2.054.102-4.56 1.355-6.012 3.112-1.303 1.504-2.456 3.959-2.156 6.266 2.306.2 4.61-1.152 6.063-2.858m2.079 3.309c-3.35-.2-6.196 1.9-7.795 1.9s-4.049-1.8-6.698-1.751c-3.447.05-6.645 2-8.395 5.1-3.598 6.2-.95 15.4 2.55 20.45 1.699 2.5 3.747 5.25 6.445 5.151 2.55-.1 3.549-1.65 6.647-1.65s3.997 1.65 6.696 1.6c2.798-.05 4.548-2.5 6.247-5 1.95-2.85 2.747-5.6 2.797-5.75-.05-.05-5.396-2.101-5.446-8.251-.05-5.15 4.198-7.6 4.398-7.751-2.399-3.548-6.147-3.948-7.447-4.048m33.387-6.969c7.278 0 12.347 5.017 12.347 12.321 0 7.33-5.173 12.373-12.529 12.373h-8.058V69.62h-5.822V32.11zm-8.24 19.807h6.68c5.07 0 7.954-2.729 7.954-7.46s-2.885-7.434-7.928-7.434h-6.706zm22.031 9.93c0-4.809 3.665-7.564 10.423-7.98l7.252-.442v-2.08c0-3.04-2.001-4.704-5.562-4.704-2.938 0-5.07 1.507-5.51 3.82h-5.252c.157-4.86 4.731-8.395 10.918-8.395 6.654 0 10.995 3.483 10.995 8.89v18.663h-5.38v-4.497h-.13c-1.534 2.937-4.914 4.782-8.579 4.782-5.406 0-9.175-3.222-9.175-8.057zm17.675-2.417v-2.106l-6.472.416c-3.64.234-5.536 1.585-5.536 3.95 0 2.288 1.975 3.77 5.068 3.77 3.95 0 6.94-2.522 6.94-6.03zm10.536 20.222v-4.496c.364.051 1.247.103 1.715.103 2.573 0 4.029-1.09 4.913-3.899l.52-1.663-9.852-27.293h6.082l6.863 22.146h.13l6.862-22.146h5.927l-10.216 28.67c-2.34 6.577-5.017 8.735-10.683 8.735-.442 0-1.872-.052-2.261-.157z"/></g></svg>