<svg xmlns="http://www.w3.org/2000/svg" viewBox="0 0 48 28" width="48" height="28"><path opacity=".07" d="M44.211 0H3.789C1.642 0 0 1.517 0 3.5v21C0 26.483 1.768 28 3.789 28h40.421C46.358 28 48 26.483 48 24.5v-21C48 1.517 46.232 0 44.211 0z"/><path fill="#fff" d="M44.444 1C45.85 1 47 2.064 47 3.364v21.273c0 1.3-1.15 2.364-2.556 2.364H3.556C2.15 27 1 25.936 1 24.636V3.364C1 2.064 2.15 1 3.556 1h40.889"/><path fill="#003087" d="M30.189 9.683c.253-1.167 0-1.983-.758-2.683-.758-.817-2.147-1.167-3.916-1.167h-5.179c-.379 0-.632.233-.758.583L17.684 18.2c0 .233.126.467.379.467h3.411l.505-3.967 2.274-2.567z"/><path fill="#3086c8" d="M30.189 9.683l-.253.233c-.632 3.267-2.779 4.433-5.811 4.433h-1.389c-.379 0-.632.233-.758.583l-.758 4.55-.253 1.167c0 .233.126.467.379.467H24c.379 0 .632-.233.632-.467v-.117l.505-2.8v-.117c0-.233.379-.467.632-.467h.379c2.653 0 4.674-.933 5.179-3.733.253-1.167.126-2.1-.505-2.8-.126-.583-.379-.817-.632-.933z"/><path fill="#012169" d="M29.432 9.45c-.126-.117-.253-.117-.379-.117s-.253 0-.379-.117c-.379-.117-.884-.117-1.389-.117h-3.789c-.126 0-.253 0-.253.117-.253.117-.379.233-.379.467l-.884 5.133v.117c0-.35.379-.583.758-.583h1.642c3.158 0 5.179-1.167 5.811-4.433v-.233a1.01 1.01 0 0 0-.632-.233z"/></svg>