<svg xmlns="http://www.w3.org/2000/svg" viewBox="0 0 48 28" width="48" height="28"><path fill="#000" d="M44.211 0H3.789C1.642 0 0 1.517 0 3.5v21C0 26.483 1.768 28 3.789 28h40.421C46.358 28 48 26.483 48 24.5v-21C48 1.517 46.232 0 44.211 0z" opacity=".08"/><path fill="#006fcf" d="M44.444 1C45.85 1 47 2.064 47 3.364v21.273c0 1.3-1.15 2.364-2.556 2.364H3.556C2.15 27 1 25.936 1 24.636V3.364C1 2.064 2.15 1 3.556 1h40.889"/><path fill="#fff" d="M11.332 11.979l.978 2.189h-1.948zm20.305.091h-3.76v.965h3.7v1.446h-3.692v1.076h3.76v.862l2.624-2.619-2.624-2.73zM13.873 9.34h5.046l1.12 2.258 1.038-2.265h13.099l1.362 1.388 1.408-1.388h6.016l-4.445 4.494 4.4 4.466h-6.106l-1.362-1.388-1.421 1.388h-21.36l-.624-1.388h-1.427l-.625 1.388h-4.94l4.151-8.96h4.333zm10.943 1.258h-2.828l-1.895 4.125-2.053-4.125h-2.807v5.612l-2.602-5.612h-2.517l-3.009 6.431h1.964l.624-1.388h3.279l.624 1.388h3.436v-4.591l2.212 4.598h1.503l2.198-4.584v4.585h1.842l.03-6.44zm11.798 3.229l3.197-3.229h-2.301l-2.022 2.014-1.955-2.014h-7.445v6.438h7.339l2.039-2.028 1.955 2.028h2.368l-3.173-3.208z"/></svg>