<svg xmlns="http://www.w3.org/2000/svg" viewBox="0 0 48 28" width="48" height="28"><path d="M44.211 0H3.789C1.642 0 0 1.517 0 3.5v21C0 26.483 1.768 28 3.789 28h40.421C46.358 28 48 26.483 48 24.5v-21C48 1.517 46.232 0 44.211 0z" opacity=".07"/><path d="M44.444 1C45.85 1 47 2.064 47 3.364v21.273c0 1.3-1.15 2.364-2.556 2.364H3.556C2.15 27 1 25.936 1 24.636V3.364C1 2.064 2.15 1 3.556 1h40.889" fill="#fff"/><path d="M22.854 13.972v3.733h-1.286V8.489h3.399c.823-.013 1.617.278 2.207.807.559.482.887 1.149.913 1.854s-.253 1.392-.774 1.907l-.139.135c-.594.522-1.387.805-2.207.786zm0-4.354v3.253h2.145a1.78 1.78 0 0 0 1.269-.471 1.53 1.53 0 0 0 .348-1.761c-.277-.598-.913-.986-1.618-.986zm8.19 1.573c.821-.035 1.624.219 2.246.715.562.502.861 1.202.821 1.924v3.89h-1.224v-.894h-.062c-.447.682-1.25 1.095-2.113 1.086-.692.021-1.367-.201-1.89-.622-.501-.378-.787-.947-.774-1.545-.03-.605.259-1.185.774-1.559.623-.414 1.378-.625 2.145-.601.653-.023 1.301.109 1.882.386v-.243c.009-.407-.186-.794-.527-1.051-.338-.284-.781-.438-1.238-.429-.675-.006-1.305.31-1.666.837l-1.131-.658c.624-.826 1.667-1.294 2.756-1.237zm-1.626 4.583c-.006.307.153.596.426.772a1.63 1.63 0 0 0 .992.307c.542-.001 1.061-.198 1.448-.551.385-.334.604-.799.604-1.287-.486-.319-1.077-.473-1.672-.436a2.3 2.3 0 0 0-1.301.343c-.308.19-.494.509-.495.852zm11.73-4.375l-4.282 9.088h-1.324l1.618-3.183-2.809-5.906h1.393l2.036 4.533 1.982-4.533z" fill="#5f6368"/><path d="M17.667 13.165c0-.359-.03-.719-.092-1.073h-5.419v2.038h3.096c-.127.655-.538 1.233-1.137 1.602v1.323h1.849c1.137-1.016 1.756-2.429 1.703-3.89z" fill="#4285f4"/><path d="M12.163 18.341c1.397.035 2.757-.422 3.802-1.28l-1.852-1.33c-.902.534-2.019.654-3.03.326s-1.8-1.068-2.142-2.006H7.045v1.365c.968 1.792 2.95 2.924 5.118 2.925z" fill="#34a853"/><path d="M8.942 14.058a2.93 2.93 0 0 1 0-2.024v-1.365H7.045a4.9 4.9 0 0 0 0 4.754z" fill="#fbbc04"/><path d="M12.163 9.847c.817-.014 1.607.271 2.198.793l1.642-1.509c-1.047-.908-2.436-1.403-3.872-1.38-2.155.01-4.121 1.137-5.087 2.917l1.897 1.366c.455-1.292 1.751-2.172 3.221-2.188z" fill="#ea4335"/></svg>